<?xml version="1.0" encoding="UTF-8" standalone="no"?>
<!-- Generator: Adobe Illustrator 19.0.0, SVG Export Plug-In . SVG Version: 6.00 Build 0)  -->

<svg
   xmlns:dc="http://purl.org/dc/elements/1.1/"
   xmlns:cc="http://creativecommons.org/ns#"
   xmlns:rdf="http://www.w3.org/1999/02/22-rdf-syntax-ns#"
   xmlns:svg="http://www.w3.org/2000/svg"
   xmlns="http://www.w3.org/2000/svg"
   xmlns:sodipodi="http://sodipodi.sourceforge.net/DTD/sodipodi-0.dtd"
   xmlns:inkscape="http://www.inkscape.org/namespaces/inkscape"
   version="1.1"
   id="Layer_1"
   x="0px"
   y="0px"
   viewBox="0 0 511.995 511.995"
   style="enable-background:new 0 0 511.995 511.995;"
   xml:space="preserve"
   sodipodi:docname="icon-relaxing-desk.svg"
   inkscape:version="0.92.2 5c3e80d, 2017-08-06"><metadata
     id="metadata10093"><rdf:RDF><cc:Work
         rdf:about=""><dc:format>image/svg+xml</dc:format><dc:type
           rdf:resource="http://purl.org/dc/dcmitype/StillImage" /></cc:Work></rdf:RDF></metadata><defs
     id="defs10091" /><sodipodi:namedview
     pagecolor="#ffffff"
     bordercolor="#666666"
     borderopacity="1"
     objecttolerance="10"
     gridtolerance="10"
     guidetolerance="10"
     inkscape:pageopacity="0"
     inkscape:pageshadow="2"
     inkscape:window-width="1280"
     inkscape:window-height="751"
     id="namedview10089"
     showgrid="false"
     inkscape:zoom="0.230471"
     inkscape:cx="413.21475"
     inkscape:cy="1.5605"
     inkscape:window-x="0"
     inkscape:window-y="0"
     inkscape:window-maximized="1"
     inkscape:current-layer="g10024" /><g
     id="g10026"><g
       id="g10024"><path
         d="M496.291,252.216H366.089c0.646-1.679,1.113-3.454,1.323-5.325c1.321-11.787-7.163-22.412-18.95-23.732l-99.572-11.156    c-6.069-0.682-12.142,1.257-16.697,5.325l-33.62,30.03l-38.949-86.367l35.459-79.849c4.996-11.251-4.001-23.746-16.266-22.568    l-64.362,6.208c7.086,5.32,12.809,12.509,16.393,21.073c1.288,3.076,2.258,6.231,2.92,9.426l20.677-1.994l-20.945,47.165    l-57.423,25.309l13.15,10.09l-49.403-18.357l8.992-15.122c-4.993-4.761-9.062-10.578-11.844-17.222    c-2.592-6.192-3.91-12.7-3.966-19.217L2.266,157.63c-5.13,8.63-1.192,19.826,8.234,23.328l82.074,30.498l-17.434-3.562    l43.968,105.046h-18.97L69.303,206.7l-33.609-6.867l38.462,132.518c1.883,6.488,7.825,10.951,14.58,10.951l51.688,0.031    l-0.006,62.139l-36.063,29.44c-4.481,3.658-5.147,10.254-1.49,14.735c3.657,4.481,10.254,5.148,14.735,1.49l22.818-18.627v10.514    c0,5.784,4.688,10.472,10.472,10.472c5.784,0,10.472-4.688,10.472-10.472V432.51l22.818,18.627    c4.484,3.659,11.08,2.987,14.735-1.49c3.658-4.481,2.991-11.077-1.49-14.735l-36.063-29.439v-62.17h53.134    c8.384,0,15.181-6.797,15.181-15.181s-6.797-15.181-15.181-15.181h-24.872l64.022-57.187l18.075,2.025    c-2.321,2.738-3.727,6.276-3.727,10.146c0,8.676,7.033,15.708,15.708,15.708h2.094v159.394c0,5.783,4.688,10.472,10.472,10.472    c5.784,0,10.472-4.688,10.472-10.472V283.632h167.556v159.394c0,5.783,4.688,10.472,10.472,10.472s10.472-4.688,10.472-10.472    V283.632h1.047c8.676,0,15.708-7.033,15.708-15.708C511.995,259.248,504.966,252.216,496.291,252.216z"
         id="path10022" /></g></g><g
     id="g10032"><g
       id="g10030"><path
         d="M118.289,91.109c-7.951-18.998-29.789-27.934-48.77-19.99c-18.988,7.948-27.937,29.782-19.989,48.77    c7.951,18.996,29.789,27.935,48.77,19.99C117.287,131.932,126.237,110.097,118.289,91.109z"
         id="path10028" /></g></g><g
     id="g10058" /><g
     id="g10060" /><g
     id="g10062" /><g
     id="g10064" /><g
     id="g10066" /><g
     id="g10068" /><g
     id="g10070" /><g
     id="g10072" /><g
     id="g10074" /><g
     id="g10076" /><g
     id="g10078" /><g
     id="g10080" /><g
     id="g10082" /><g
     id="g10084" /><g
     id="g10086" /><g
     id="g10678"
     transform="translate(564.22489,538.33371)"><g
       id="g10612"
       transform="translate(-454.07796,-547.32508)"><g
         id="g10610"><path
           id="path10608"
           d="m 387.493,160.116 c -5.375,-2.945 -12.118,-0.975 -15.065,4.4 l -33.463,61.078 c -6.261,0 -52.524,0 -60.176,0 -6.129,0 -11.097,4.968 -11.097,11.097 0,0.169 0.019,0.333 0.026,0.5 0.264,5.895 5.113,10.597 11.072,10.597 h 66.75 c 4.054,0 7.785,-2.211 9.732,-5.765 l 36.622,-66.843 c 2.944,-5.374 0.973,-12.119 -4.401,-15.064 z"
           inkscape:connector-curvature="0" /></g></g><g
       id="g10614" /><g
       id="g10616" /><g
       id="g10618" /><g
       id="g10620" /><g
       id="g10622" /><g
       id="g10624" /><g
       id="g10626" /><g
       id="g10628" /><g
       id="g10630" /><g
       id="g10632" /><g
       id="g10634" /><g
       id="g10636" /><g
       id="g10638" /><g
       id="g10640" /><g
       id="g10642" /></g></svg>