<?xml version="1.0" encoding="UTF-8" standalone="no"?>
<!-- Generator: Adobe Illustrator 19.0.0, SVG Export Plug-In . SVG Version: 6.00 Build 0)  -->

<svg
   xmlns:dc="http://purl.org/dc/elements/1.1/"
   xmlns:cc="http://creativecommons.org/ns#"
   xmlns:rdf="http://www.w3.org/1999/02/22-rdf-syntax-ns#"
   xmlns:svg="http://www.w3.org/2000/svg"
   xmlns="http://www.w3.org/2000/svg"
   xmlns:sodipodi="http://sodipodi.sourceforge.net/DTD/sodipodi-0.dtd"
   xmlns:inkscape="http://www.inkscape.org/namespaces/inkscape"
   version="1.1"
   id="Layer_1"
   x="0px"
   y="0px"
   viewBox="0 0 512 512"
   style="enable-background:new 0 0 512 512;"
   xml:space="preserve"
   sodipodi:docname="icon-empty-desk.svg"
   inkscape:version="0.92.2 5c3e80d, 2017-08-06"><metadata
     id="metadata9811"><rdf:RDF><cc:Work
         rdf:about=""><dc:format>image/svg+xml</dc:format><dc:type
           rdf:resource="http://purl.org/dc/dcmitype/StillImage" /></cc:Work></rdf:RDF></metadata><defs
     id="defs9809" /><sodipodi:namedview
     pagecolor="#ffffff"
     bordercolor="#666666"
     borderopacity="1"
     objecttolerance="10"
     gridtolerance="10"
     guidetolerance="10"
     inkscape:pageopacity="0"
     inkscape:pageshadow="2"
     inkscape:window-width="1280"
     inkscape:window-height="751"
     id="namedview9807"
     showgrid="false"
     inkscape:zoom="0.74301455"
     inkscape:cx="188.93226"
     inkscape:cy="185.66307"
     inkscape:window-x="0"
     inkscape:window-y="0"
     inkscape:window-maximized="1"
     inkscape:current-layer="Layer_1" /><g
     id="g9738"
     transform="translate(30)"><g
       id="g9736"><path
         d="m 134.96406,324.167 21.622,-170.733 c 1.115,-8.815 9.162,-15.055 17.981,-13.939 8.815,1.116 15.055,9.167 13.94,17.981 l -23.403,184.798 c -1.018,8.039 -7.857,14.067 -15.96,14.067 H 91.046064 v 65.882 l 38.215996,31.197 c 4.937,4.029 5.505,11.429 1.094,16.171 -4.025,4.328 -10.844,4.519 -15.423,0.781 L 91.046064,450.873 v 10.762 c 0,5.91 -4.46,11.072 -10.359,11.454 -6.463,0.418 -11.835,-4.701 -11.835,-11.073 v -11.143 l -24.18,19.739 c -4.745,3.876 -11.739,3.169 -15.614,-1.578 -3.876,-4.747 -3.168,-11.739 1.579,-15.614 l 38.216,-31.197 V 356.34 h -52.976 C 7.8400639,356.34 1.9118139,350.91584 6.3932813e-5,342.738 2.9249939,331.3538 3.8948939,327.80632 14.947984,327.01577 52.022054,324.36412 105.08716,324.19416 134.96406,324.167 Z"
         id="path9734"
         inkscape:connector-curvature="0"
         sodipodi:nodetypes="cccccsccccccscsccccccscsc" /></g></g><g
     id="g9750"><g
       id="g9748"><path
         d="M495.354,259.884H270.076c-9.193,0-16.646,7.453-16.646,16.646s7.453,16.646,16.646,16.646h2.219v168.841    c0,6.128,4.968,11.097,11.097,11.097s11.097-4.969,11.097-11.097V293.176H472.05v168.841c0,6.128,4.968,11.097,11.097,11.097    s11.097-4.969,11.097-11.097V293.176h1.11c9.193,0,16.646-7.453,16.646-16.646C512,267.336,504.548,259.884,495.354,259.884z"
         id="path9746" /></g></g><g
     id="g9776" /><g
     id="g9778" /><g
     id="g9780" /><g
     id="g9782" /><g
     id="g9784" /><g
     id="g9786" /><g
     id="g9788" /><g
     id="g9790" /><g
     id="g9792" /><g
     id="g9794" /><g
     id="g9796" /><g
     id="g9798" /><g
     id="g9800" /><g
     id="g9802" /><g
     id="g9804" /></svg>